# xmcd
#
# Track frame offsets:
#	150
#	13688
#	29520
#	47220
#	55052
#	69181
#	84331
#	101164
#	113314
#	126034
#	136332
#	151407
#
# Disc length: 2218 seconds
#
# Revision: 0
# Processed by: cddbd v1.5.2PL0 Copyright (c) Steve Scherf et al.
# Submitted via: audiograbber 1.83.01
#
DISCID=9208a80c
DTITLE=Golden Earring - Complete Studio Recordings [CD 03) - Miracle Mirror [re
DTITLE=mastered 2017]
DYEAR=1968
DGENRE=Rock
TTITLE0=Golden Earrings - The Truth About Arthur
TTITLE1=Golden Earrings - Circus Will Be In Town In Time
TTITLE2=Golden Earrings - Crystal Heaven
TTITLE3=Golden Earrings - Sam And Sue
TTITLE4=Golden Earrings - I've Just Lost Somebody
TTITLE5=Golden Earrings - Mr. Fortune's Wife
TTITLE6=Golden Earrings - Who Cares?
TTITLE7=Golden Earrings - Born A Second Time
TTITLE8=Golden Earrings - Magnificent Magistral
TTITLE9=Golden Earrings - Must I Cry?
TTITLE10=Golden Earrings - Nothing Can Change This World Of Mine
TTITLE11=Golden Earrings - Gipsy Rhapsody
EXTD=
EXTT0=
EXTT1=
EXTT2=
EXTT3=
EXTT4=
EXTT5=
EXTT6=
EXTT7=
EXTT8=
EXTT9=
EXTT10=
EXTT11=
PLAYORDER=
